<svg aria-hidden="true" style="position:absolute;width:0;height:0;overflow:hidden" xmlns="http://www.w3.org/2000/svg">
  <defs>
    <symbol id="device" viewBox="0 0 32 32">
      <path d="M13.4987 28.8125C13.2449 28.8124 13.0006 28.7157 12.8154 28.5422C12.6302 28.3686 12.5179 28.1311 12.5013 27.8778C12.3569 25.643 11.5057 23.5119 10.0707 21.7925C8.20165 19.6716 5.57971 18.3626 2.76133 18.1432C2.49683 18.1241 2.25075 18.0007 2.07722 17.8001C1.90369 17.5996 1.81692 17.3383 1.836 17.0738C1.85978 16.8112 1.98451 16.568 2.18395 16.3954C2.38338 16.2228 2.64198 16.1343 2.90533 16.1485C6.26429 16.3898 9.39009 17.9546 11.596 20.4992C13.3075 22.5464 14.3239 25.0845 14.4987 27.7472C14.5072 27.8782 14.4898 28.0097 14.4475 28.134C14.4052 28.2584 14.3388 28.3731 14.2521 28.4718C14.1654 28.5705 14.0602 28.6511 13.9423 28.7091C13.8245 28.7671 13.6964 28.8014 13.5653 28.8098L13.4987 28.8125ZM8.16667 28.8125C7.91262 28.8127 7.66802 28.7162 7.48254 28.5426C7.29706 28.369 7.1846 28.1313 7.168 27.8778C7.10392 26.8672 6.71956 25.9033 6.07067 25.1258C5.22277 24.1675 4.03569 23.5761 2.76 23.4765C2.49549 23.457 2.24954 23.3333 2.07626 23.1325C1.90297 22.9317 1.81655 22.6703 1.836 22.4058C1.85545 22.1413 1.97918 21.8954 2.17997 21.7221C2.38076 21.5488 2.64216 21.4624 2.90667 21.4818C4.71903 21.6148 6.40501 22.46 7.596 23.8325C8.52158 24.9376 9.07124 26.3087 9.16533 27.7472C9.17384 27.8782 9.15644 28.0097 9.11414 28.134C9.07183 28.2584 9.00545 28.3731 8.91878 28.4718C8.83211 28.5705 8.72685 28.6511 8.60901 28.7091C8.49117 28.7671 8.36306 28.8014 8.232 28.8098L8.16667 28.8125Z" />
      <path d="M2.83333 29.1458C3.56971 29.1458 4.16667 28.5489 4.16667 27.8125C4.16667 27.0761 3.56971 26.4792 2.83333 26.4792C2.09695 26.4792 1.5 27.0761 1.5 27.8125C1.5 28.5489 2.09695 29.1458 2.83333 29.1458Z" />
      <path d="M30.5 7.8125V22.4792C30.4996 23.8051 29.9728 25.0767 29.0351 26.0143C28.0975 26.9519 26.826 27.4788 25.5 27.4792H17.1533C16.9314 24.2775 15.6988 21.2289 13.6333 18.7725C12.2987 17.2362 10.6745 15.978 8.85337 15.0698C7.03228 14.1615 5.05007 13.621 3.02 13.4792H2.86C2.51256 13.4793 2.1669 13.5286 1.83333 13.6258V7.8125C1.83369 6.48653 2.36058 5.21496 3.29819 4.27736C4.2358 3.33975 5.50736 2.81285 6.83333 2.8125H25.5C26.826 2.81285 28.0975 3.33975 29.0351 4.27736C29.9728 5.21496 30.4996 6.48653 30.5 7.8125Z" />
    </symbol>
    <symbol id="device-cur" viewBox="0 0 32 32">
      <path fill-rule="evenodd" clip-rule="evenodd" d="M28 10.7268L31.3627 13.8655C31.7854 14.2868 32 14.7975 32 15.3335C32 16.4362 31.1027 17.3335 30 17.3335H28V28.6668C28 30.5042 26.504 32.0002 24.6667 32.0002H7.33335C5.49602 32.0002 4.00002 30.5042 4.00002 28.6668V17.3335H2.00002C1.60206 17.333 1.21329 17.2139 0.883303 16.9915C0.553316 16.769 0.297079 16.4533 0.147287 16.0846C-0.00250472 15.716 -0.0390592 15.311 0.0422882 14.9214C0.123636 14.5319 0.319196 14.1754 0.604017 13.8975L15.0907 0.358819C15.3376 0.128245 15.6628 0 16.0007 0C16.3385 0 16.6638 0.128245 16.9107 0.358819L21.3334 4.49082V2.66682C21.3334 2.3132 21.4738 1.97406 21.7239 1.72401C21.9739 1.47396 22.3131 1.33349 22.6667 1.33349H26.6667C27.0203 1.33349 27.3594 1.47396 27.6095 1.72401C27.8595 1.97406 28 2.3132 28 2.66682V10.7268ZM24.266 18.6691C24.4046 18.6177 24.5318 18.5396 24.6403 18.4391C24.8588 18.2362 24.9879 17.955 24.9992 17.6571C25.0105 17.3592 24.903 17.0691 24.7003 16.8503C22.3446 14.3135 19.2112 12.9633 15.9246 13.0008C12.623 13.0548 9.54661 14.522 7.26147 17.1339C7.073 17.3596 6.9804 17.65 7.00347 17.943C7.02654 18.236 7.16345 18.5084 7.38492 18.7019C7.60638 18.8953 7.89482 18.9945 8.18853 18.9782C8.48224 18.9619 8.75791 18.8314 8.95656 18.6146C10.8168 16.4888 13.3046 15.2931 15.9621 15.2496C18.6151 15.2466 21.136 16.3178 23.0488 18.3791C23.1493 18.4874 23.2702 18.5749 23.4046 18.6366C23.5391 18.6983 23.6843 18.7329 23.8321 18.7385C23.9799 18.744 24.1273 18.7205 24.266 18.6691ZM21.3552 22.7087C21.2522 22.8149 21.1293 22.8997 20.9935 22.9583C20.8577 23.017 20.7116 23.0483 20.5637 23.0506C20.4157 23.0528 20.2688 23.0259 20.1313 22.9713C19.9938 22.9168 19.8683 22.8357 19.7622 22.7327C19.2704 22.2516 18.6879 21.8728 18.0484 21.6184C17.409 21.364 16.7254 21.2389 16.0372 21.2505C15.3487 21.2594 14.6688 21.4047 14.0369 21.6779C13.405 21.9511 12.8336 22.3469 12.3557 22.8422C12.1446 23.042 11.8644 23.1525 11.5736 23.1507C11.2828 23.149 11.004 23.035 10.7953 22.8327C10.5866 22.6304 10.4642 22.3553 10.4537 22.065C10.4431 21.7746 10.5453 21.4914 10.7387 21.2745C11.4218 20.5666 12.2387 20.001 13.142 19.6106C14.0453 19.2202 15.0171 19.0128 16.0012 19.0002C18.0611 18.9551 19.8928 19.7233 21.3312 21.1185C21.5453 21.3262 21.668 21.6104 21.6725 21.9086C21.6771 22.2068 21.5629 22.4946 21.3552 22.7087ZM14.9731 27.5377C15.2406 27.8171 15.6056 27.9827 15.9922 28C16.3904 28 16.7722 27.8419 17.0538 27.5606C17.3354 27.2792 17.4936 26.8977 17.4936 26.4998C17.4936 26.1019 17.3354 25.7203 17.0538 25.439C16.7722 25.1576 16.3904 24.9995 15.9922 24.9995C15.6056 25.0168 15.2406 25.1824 14.9731 25.4619C14.7057 25.7413 14.5564 26.1131 14.5564 26.4998C14.5564 26.8864 14.7057 27.2582 14.9731 27.5377Z" />
    </symbol>
  </defs>
</svg>