<svg aria-hidden="true" style="position:absolute;width:0;height:0;overflow:hidden" xmlns="http://www.w3.org/2000/svg">
  <defs>
    <symbol id="plus" viewBox="0 0 32 32">
      <path d="M22 17H17V22C17 22.55 16.553 23 16 23C15.447 23 15 22.55 15 22V17H10C9.447 17 9 16.55 9 16C9 15.45 9.447 15 10 15H15V10C15 9.45 15.447 9 16 9C16.553 9 17 9.45 17 10V15H22C22.553 15 23 15.45 23 16C23 16.55 22.553 17 22 17ZM16 0C7.163 0 0 7.16 0 16C0 24.84 7.163 32 16 32C24.837 32 32 24.84 32 16C32 7.16 24.837 0 16 0Z" />
    </symbol>
    <symbol id="device" viewBox="0 0 32 32">
      <path d="M13.4987 28.8125C13.2449 28.8124 13.0006 28.7157 12.8154 28.5422C12.6302 28.3686 12.5179 28.1311 12.5013 27.8778C12.3569 25.643 11.5057 23.5119 10.0707 21.7925C8.20165 19.6716 5.57971 18.3626 2.76133 18.1432C2.49683 18.1241 2.25075 18.0007 2.07722 17.8001C1.90369 17.5996 1.81692 17.3383 1.836 17.0738C1.85978 16.8112 1.98451 16.568 2.18395 16.3954C2.38338 16.2228 2.64198 16.1343 2.90533 16.1485C6.26429 16.3898 9.39009 17.9546 11.596 20.4992C13.3075 22.5464 14.3239 25.0845 14.4987 27.7472C14.5072 27.8782 14.4898 28.0097 14.4475 28.134C14.4052 28.2584 14.3388 28.3731 14.2521 28.4718C14.1654 28.5705 14.0602 28.6511 13.9423 28.7091C13.8245 28.7671 13.6964 28.8014 13.5653 28.8098L13.4987 28.8125ZM8.16667 28.8125C7.91262 28.8127 7.66802 28.7162 7.48254 28.5426C7.29706 28.369 7.1846 28.1313 7.168 27.8778C7.10392 26.8672 6.71956 25.9033 6.07067 25.1258C5.22277 24.1675 4.03569 23.5761 2.76 23.4765C2.49549 23.457 2.24954 23.3333 2.07626 23.1325C1.90297 22.9317 1.81655 22.6703 1.836 22.4058C1.85545 22.1413 1.97918 21.8954 2.17997 21.7221C2.38076 21.5488 2.64216 21.4624 2.90667 21.4818C4.71903 21.6148 6.40501 22.46 7.596 23.8325C8.52158 24.9376 9.07124 26.3087 9.16533 27.7472C9.17384 27.8782 9.15644 28.0097 9.11414 28.134C9.07183 28.2584 9.00545 28.3731 8.91878 28.4718C8.83211 28.5705 8.72685 28.6511 8.60901 28.7091C8.49117 28.7671 8.36306 28.8014 8.232 28.8098L8.16667 28.8125Z" />
      <path d="M2.83333 29.1458C3.56971 29.1458 4.16667 28.5489 4.16667 27.8125C4.16667 27.0761 3.56971 26.4792 2.83333 26.4792C2.09695 26.4792 1.5 27.0761 1.5 27.8125C1.5 28.5489 2.09695 29.1458 2.83333 29.1458Z" />
      <path d="M30.5 7.8125V22.4792C30.4996 23.8051 29.9728 25.0767 29.0351 26.0143C28.0975 26.9519 26.826 27.4788 25.5 27.4792H17.1533C16.9314 24.2775 15.6988 21.2289 13.6333 18.7725C12.2987 17.2362 10.6745 15.978 8.85337 15.0698C7.03228 14.1615 5.05007 13.621 3.02 13.4792H2.86C2.51256 13.4793 2.1669 13.5286 1.83333 13.6258V7.8125C1.83369 6.48653 2.36058 5.21496 3.29819 4.27736C4.2358 3.33975 5.50736 2.81285 6.83333 2.8125H25.5C26.826 2.81285 28.0975 3.33975 29.0351 4.27736C29.9728 5.21496 30.4996 6.48653 30.5 7.8125Z" />
    </symbol>
  </defs>
</svg>